<svg width="32" height="32" viewBox="0 0 32 32" fill="none" xmlns="http://www.w3.org/2000/svg">
<path d="M16 10.9C13.2 10.9 10.9 13.2 10.9 16C10.9 18.8 13.2 21.1 16 21.1C18.8 21.1 21.1 18.8 21.1 16C21.1 13.2 18.8 10.9 16 10.9ZM16 19.3C14.2 19.3 12.7 17.8 12.7 16C12.7 14.2 14.2 12.7 16 12.7C17.8 12.7 19.3 14.2 19.3 16C19.3 17.8 17.8 19.3 16 19.3Z" fill="white"/>
<path d="M22.5 10.7C22.5 11.4 22 11.9 21.3 11.9C20.6 11.9 20.1 11.4 20.1 10.7C20.1 10 20.6 9.5 21.3 9.5C22 9.5 22.5 10 22.5 10.7Z" fill="white"/>
<path d="M16 10.9C13.2 10.9 10.9 13.2 10.9 16C10.9 18.8 13.2 21.1 16 21.1C18.8 21.1 21.1 18.8 21.1 16C21.1 13.2 18.8 10.9 16 10.9ZM16 19.3C14.2 19.3 12.7 17.8 12.7 16C12.7 14.2 14.2 12.7 16 12.7C17.8 12.7 19.3 14.2 19.3 16C19.3 17.8 17.8 19.3 16 19.3Z" fill="white"/>
<path d="M22.5 10.7C22.5 11.4 22 11.9 21.3 11.9C20.6 11.9 20.1 11.4 20.1 10.7C20.1 10 20.6 9.5 21.3 9.5C22 9.5 22.5 10 22.5 10.7Z" fill="white"/>
<path d="M24.8 1H7.2C3.8 1 1 3.8 1 7.2V24.7C1 28.2 3.8 31 7.2 31H24.7C28.2 31 30.9 28.2 30.9 24.8V7.2C31 3.8 28.2 1 24.8 1Z" fill="url(#paint0_linear)"/>
<path d="M16 10.9C13.2 10.9 10.9 13.2 10.9 16C10.9 18.8 13.2 21.1 16 21.1C18.8 21.1 21.1 18.8 21.1 16C21.1 13.2 18.8 10.9 16 10.9ZM16 19.3C14.2 19.3 12.7 17.8 12.7 16C12.7 14.2 14.2 12.7 16 12.7C17.8 12.7 19.3 14.2 19.3 16C19.3 17.8 17.8 19.3 16 19.3Z" fill="white"/>
<path d="M22.5 10.7C22.5 11.4 22 11.9 21.3 11.9C20.6 11.9 20.1 11.4 20.1 10.7C20.1 10 20.6 9.5 21.3 9.5C22 9.5 22.5 10 22.5 10.7Z" fill="white"/>
<path d="M25.9 11.9C25.7 8.3 23.7 6.2 20.1 6.1C19.1 6 18.7 6 16 6C13.3 6 12.9 6 11.9 6.1C8.3 6.3 6.2 8.3 6.1 11.9C6 12.9 6 13.3 6 16C6 18.7 6 19.1 6.1 20.1C6.3 23.7 8.3 25.7 11.9 25.9C13 25.9 13.3 26 16 26C18.7 26 19.1 26 20.1 25.9C23.7 25.7 25.8 23.7 25.9 20.1C25.9 19 26 18.7 26 16C26 13.3 26 12.9 25.9 11.9ZM24.1 20C24 22.7 22.7 24 20 24.1C19 24.1 18.6 24.2 16 24.2C13.4 24.2 13 24.2 12 24.1C9.2 24 8 22.7 7.9 20C7.9 19 7.8 18.6 7.8 16C7.8 13.3 7.8 13 7.9 12C8 9.3 9.2 8 12 7.9C13 7.9 13.4 7.8 16 7.8C18.6 7.8 19 7.8 20 7.9C22.7 8 24 9.3 24.1 12C24.1 13.1 24.2 13.4 24.2 16C24.2 18.7 24.2 19 24.1 20Z" fill="white"/>
<defs>
<linearGradient id="paint0_linear" x1="29.4362" y1="1.5809" x2="5.289" y2="27.495" gradientUnits="userSpaceOnUse">
<stop stop-color="#515BD4"/>
<stop offset="0.26" stop-color="#9510B8"/>
<stop offset="0.66" stop-color="#E51804"/>
<stop offset="1" stop-color="#FFBF00"/>
</linearGradient>
</defs>
</svg>
