<svg width="32" height="32" viewBox="0 0 32 32" fill="none" xmlns="http://www.w3.org/2000/svg">
<g clip-path="url(#clip0_11_2)">
<path d="M25.7728 0H6.2272C2.78801 0 0 2.78801 0 6.2272V25.7728C0 29.212 2.78801 32 6.2272 32H25.7728C29.212 32 32 29.212 32 25.7728V6.2272C32 2.78801 29.212 0 25.7728 0Z" fill="#0E141B"/>
<path d="M17.6896 14.6096L24.3024 6.9216H22.736L16.9936 13.5968L12.4064 6.9216H7.11679L14.0528 17.016L7.11679 25.0784H8.68479L14.7488 18.0288L19.592 25.0784H24.8816L17.688 14.6112L17.6896 14.6096ZM15.5424 17.104L14.84 16.0992L9.24799 8.1008H11.656L16.168 14.5552L16.8704 15.56L22.736 23.9504H20.328L15.5424 17.104Z" fill="white"/>
</g>
<defs>
<clipPath id="clip0_11_2">
<rect width="32" height="32" fill="white"/>
</clipPath>
</defs>
</svg>
